<svg xmlns="http://www.w3.org/2000/svg" width="64" height="68" viewBox="0 0 64 68" fill="none"><path fill-rule="evenodd" clip-rule="evenodd" d="M31.649 0.250133C32.0902 -0.00623657 32.6348 -0.00726741 33.077 0.24743L51.908 11.0943C52.349 11.3483 52.6212 11.8182 52.6221 12.3271C52.6231 12.836 52.3527 13.3069 51.9127 13.5626L33.2454 24.4094C32.8042 24.6658 32.2596 24.6668 31.8174 24.4121L12.9864 13.5653C12.5454 13.3112 12.2732 12.8414 12.2723 12.3325C12.2713 11.8236 12.5417 11.3527 12.9817 11.097L31.649 0.250133ZM32.3684 3.13008L16.5452 12.3244L32.5259 21.5295L48.3492 12.3352L32.3684 3.13008Z" fill="#57A5FF"></path><path fill-rule="evenodd" clip-rule="evenodd" d="M12.9325 11.0946C13.3735 10.8408 13.9163 10.8412 14.3569 11.0957L33.1333 21.9426C33.5754 22.198 33.8472 22.6703 33.8459 23.1808L33.7913 44.7656C33.79 45.2744 33.5177 45.7439 33.0767 45.9977C32.6357 46.2515 32.0929 46.251 31.6523 45.9965L12.8759 35.1497C12.4338 34.8943 12.162 34.422 12.1633 33.9115L12.2179 12.3267C12.2192 11.8179 12.4915 11.3484 12.9325 11.0946ZM15.0632 14.7969L15.0169 33.0933L30.946 42.2953L30.9922 23.9989L15.0632 14.7969Z" fill="#57A5FF"></path><path fill-rule="evenodd" clip-rule="evenodd" d="M51.9641 11.095C52.4047 11.3489 52.6767 11.8182 52.678 12.3267L52.7325 33.9115C52.7338 34.422 52.462 34.8943 52.02 35.1497L33.2435 45.9965C32.8035 46.2507 32.2615 46.2515 31.8207 45.9986C31.38 45.7457 31.1071 45.2773 31.1046 44.7692L30.9954 23.1844C30.9928 22.672 31.2654 22.1975 31.7095 21.9417L50.5405 11.0948C50.9812 10.841 51.5236 10.8411 51.9641 11.095ZM33.8511 23.9989L33.9437 42.2989L49.8789 33.0933L49.8326 14.7934L33.8511 23.9989Z" fill="#57A5FF"></path><path fill-rule="evenodd" clip-rule="evenodd" d="M31.649 21.8896C32.0902 21.6333 32.6348 21.6322 33.077 21.8869L51.908 32.7338C52.349 32.9878 52.6212 33.4577 52.6221 33.9666C52.6231 34.4755 52.3527 34.9464 51.9127 35.2021L33.2454 46.0489C32.8042 46.3053 32.2596 46.3063 31.8174 46.0516L12.9864 35.2048C12.5454 34.9507 12.2732 34.4809 12.2723 33.972C12.2713 33.4631 12.5417 32.9922 12.9817 32.7365L31.649 21.8896ZM32.3684 24.7696L16.5452 33.9639L32.5259 43.169L48.3492 33.9747L32.3684 24.7696Z" fill="#57A5FF"></path><path fill-rule="evenodd" clip-rule="evenodd" d="M12.9325 32.7332C13.3735 32.4794 13.9163 32.4799 14.3569 32.7344L33.1333 43.5813C33.5754 43.8367 33.8472 44.3089 33.8459 44.8195L33.7913 66.4042C33.79 66.913 33.5177 67.3826 33.0767 67.6364C32.6357 67.8901 32.0929 67.8897 31.6523 67.6352L12.8759 56.7883C12.4338 56.5329 12.162 56.0606 12.1633 55.5501L12.2179 33.9654C12.2192 33.4566 12.4915 32.987 12.9325 32.7332ZM15.0632 36.4356L15.0169 54.732L30.946 63.934L30.9922 45.6376L15.0632 36.4356Z" fill="#57A5FF"></path><path fill-rule="evenodd" clip-rule="evenodd" d="M51.9641 32.7337C52.4047 32.9876 52.6767 33.4569 52.678 33.9654L52.7325 55.5501C52.7338 56.0607 52.462 56.5329 52.02 56.7883L33.2435 67.6352C32.8035 67.8894 32.2615 67.8902 31.8207 67.6372C31.38 67.3843 31.1071 66.916 31.1046 66.4078L30.9954 44.8231C30.9928 44.3106 31.2654 43.8362 31.7095 43.5804L50.5405 32.7335C50.9812 32.4797 51.5236 32.4798 51.9641 32.7337ZM33.8511 45.6376L33.9437 63.9376L49.8789 54.732L49.8326 36.432L33.8511 45.6376Z" fill="#57A5FF"></path></svg>