<svg xmlns="http://www.w3.org/2000/svg" viewBox="0 0 178.16 175.96"><defs><style>.cls-1{fill:#fff;}.cls-2{fill:none;stroke:#231f20;stroke-miterlimit:10;stroke-width:5px;}.cls-3{font-size:100px;fill:#231f20;font-family:Comahawk;}</style></defs><g id="Layer_2" data-name="Layer 2"><path class="cls-1" d="M5.12,4H126.71a46.76,46.76,0,0,1,46.76,46.76V168.45a5,5,0,0,1-5,5H50.36A47.86,47.86,0,0,1,2.5,125.6V6.62A2.62,2.62,0,0,1,5.12,4Z"/><path class="cls-2" d="M78.6,185.48H64.52a50,50,0,0,1-50-50V120" transform="translate(-12.02 -12.02)"/><path class="cls-2" d="M185.48,149.91v30.57a5,5,0,0,1-5,5H152" transform="translate(-12.02 -12.02)"/><path class="cls-2" d="M120.1,14.52h15.38a50,50,0,0,1,50,50V77.44" transform="translate(-12.02 -12.02)"/><path class="cls-2" d="M14.52,44.32V19.52a5,5,0,0,1,5-5h30" transform="translate(-12.02 -12.02)"/></g><g id="Layer_1" data-name="Layer 1"><text class="cls-3" transform="translate(35.78 116.69)">Im</text></g></svg>