<svg xmlns="http://www.w3.org/2000/svg" viewBox="0 0 900 207" preserveAspectRatio="xMidYMid meet"><defs><clipPath id="__lottie_element_2"><rect width="900" height="207" x="0" y="0"></rect></clipPath><clipPath id="__lottie_element_4"><path d="M0,0 L555,0 L555,121 L0,121z"></path></clipPath><mask id="__lottie_element_7" mask-type="alpha"><g transform="matrix(1,0,0,1,277.30499267578125,60.69599914550781)" opacity="1" style="display: block;"><g opacity="1" transform="matrix(1,0,0,1,0,0)"><path fill="rgb(255,255,255)" fill-opacity="1" d=" M240.68499755859375,4.64300012588501 C237.86599731445312,3.61299991607666 236.45399475097656,2.2820000648498535 236.45399475097656,0.6489999890327454 C236.45399475097656,0.6489999890327454 236.4429931640625,0.6119999885559082 236.4429931640625,0.6119999885559082 C236.4429931640625,-2.434000015258789 238.65899658203125,-3.9570000171661377 243.41900634765625,-3.9570000171661377 C248.1790008544922,-3.9570000171661377 251.89199829101562,-1.5670000314712524 254.5469970703125,3.2209999561309814 C254.5469970703125,3.2209999561309814 275.7980041503906,-8.034000396728516 275.7980041503906,-8.034000396728516 C272.3659973144531,-13.687999725341797 267.8219909667969,-18.01099967956543 262.1839904785156,-21.003000259399414 C256.5409851074219,-23.9950008392334 250.28399658203125,-25.489999771118164 243.41900634765625,-25.489999771118164 C234.23199462890625,-25.489999771118164 226.51100158691406,-23.1560001373291 220.25399780273438,-18.476999282836914 C214.0030059814453,-13.798999786376953 210.8769989013672,-7.2129998207092285 210.8769989013672,1.2690000534057617 C210.8769989013672,6.486000061035156 212.28900146484375,10.890999794006348 215.10800170898438,14.484000205993652 C217.9320068359375,18.07699966430664 221.33799743652344,20.714000701904297 225.3209991455078,22.400999069213867 C229.31399536132812,24.08799934387207 233.29600524902344,25.44700050354004 237.2790069580078,26.47800064086914 C241.26699829101562,27.51799964904785 244.67300415039062,28.576000213623047 247.49200439453125,29.660999298095703 C250.31100463867188,30.746000289916992 251.72799682617188,32.104000091552734 251.72799682617188,33.73699951171875 C251.72799682617188,37.11199951171875 248.73399353027344,38.79899978637695 242.75799560546875,38.79899978637695 C235.55999755859375,38.79899978637695 230.86300659179688,35.597999572753906 228.64700317382812,29.177000045776367 C228.64700317382812,29.177000045776367 207.06300354003906,41.25199890136719 207.06300354003906,41.25199890136719 C213.3730010986328,54.202999114990234 225.26800537109375,60.66999816894531 242.75799560546875,60.66999816894531 C252.5,60.66999816894531 260.6929931640625,58.417999267578125 267.33599853515625,53.90299987792969 C273.97900390625,49.39799880981445 277.30499267578125,42.73099899291992 277.30499267578125,33.91999816894531 C277.30499267578125,28.266000747680664 275.88800048828125,23.55900001525879 273.0690002441406,19.81100082397461 C270.25,16.062999725341797 266.843994140625,13.371999740600586 262.8559875488281,11.73900032043457 C258.8680114746094,10.105999946594238 254.88099670410156,8.774999618530273 250.8979949951172,7.74399995803833 C246.9149932861328,6.714000225067139 243.50900268554688,5.673999786376953 240.68499755859375,4.64300012588501z M169.66000366210938,-23.174999237060547 C169.66000366210938,-23.174999237060547 169.66000366210938,58.40700149536133 169.66000366210938,58.40700149536133 C169.66000366210938,58.40700149536133 194.5709991455078,58.40700149536133 194.5709991455078,58.40700149536133 C194.5709991455078,58.40700149536133 194.5709991455078,-23.174999237060547 194.5709991455078,-23.174999237060547 C194.5709991455078,-23.174999237060547 169.66000366210938,-23.174999237060547 169.66000366210938,-23.174999237060547z M182.11599731445312,-30.351999282836914 C186.2100067138672,-30.351999282836914 189.7209930419922,-31.792999267578125 192.66200256347656,-34.67499923706055 C195.58700561523438,-37.55699920654297 197.0570068359375,-41.013999938964844 197.0570068359375,-45.0359992980957 C197.0570068359375,-49.05799865722656 195.58700561523438,-52.51499938964844 192.66200256347656,-55.39699935913086 C189.7209930419922,-58.27899932861328 186.21499633789062,-59.720001220703125 182.11599731445312,-59.720001220703125 C178.01699829101562,-59.720001220703125 174.5,-58.27899932861328 171.57000732421875,-55.39699935913086 C168.63999938964844,-52.51499938964844 167.1750030517578,-49.05799865722656 167.1750030517578,-45.0359992980957 C167.1750030517578,-41.013999938964844 168.63499450683594,-37.55699920654297 171.57000732421875,-34.67499923706055 C174.5,-31.792999267578125 178.02200317382812,-30.351999282836914 182.11599731445312,-30.351999282836914z M126.02200317382812,-60.69599914550781 C126.02200317382812,-60.69599914550781 126.02200317382812,58.40700149536133 126.02200317382812,58.40700149536133 C126.02200317382812,58.40700149536133 150.9320068359375,58.40700149536133 150.9320068359375,58.40700149536133 C150.9320068359375,58.40700149536133 150.9320068359375,-60.69599914550781 150.9320068359375,-60.69599914550781 C150.9320068359375,-60.69599914550781 126.02200317382812,-60.69599914550781 126.02200317382812,-60.69599914550781z M62.941001892089844,37.51100158691406 C57.064998626708984,37.51100158691406 52.31100082397461,35.722999572753906 48.65599822998047,32.130001068115234 C45.00699996948242,28.54599952697754 43.176998138427734,23.702999114990234 43.176998138427734,17.611000061035156 C43.176998138427734,11.519000053405762 45.00699996948242,6.684000015258789 48.65599822998047,3.0910000801086426 C52.316001892089844,-0.49300000071525574 57.07600021362305,-2.2899999618530273 62.941001892089844,-2.2899999618530273 C68.81199645996094,-2.2899999618530273 73.5780029296875,-0.49300000071525574 77.22699737548828,3.0910000801086426 C80.8759994506836,6.675000190734863 82.70600128173828,11.519000053405762 82.70600128173828,17.611000061035156 C82.70600128173828,23.702999114990234 80.88700103759766,28.54599952697754 77.22699737548828,32.130001068115234 C73.56700134277344,35.7140007019043 68.81700134277344,37.51100158691406 62.941001892089844,37.51100158691406z M107.61100006103516,-23.174999237060547 C107.61100006103516,-23.174999237060547 82.69999694824219,-23.174999237060547 82.69999694824219,-23.174999237060547 C82.69999694824219,-23.174999237060547 82.69999694824219,-11.446999549865723 82.69999694824219,-11.446999549865723 C83.16000366210938,-16.006999969482422 76.85099792480469,-25.12700080871582 57.95899963378906,-25.454999923706055 C47,-25.64699935913086 37.64400100708008,-21.297000885009766 29.895999908447266,-12.979000091552734 C22.142000198364258,-4.660999774932861 18.266000747680664,5.535999774932861 18.266000747680664,17.611000061035156 C18.266000747680664,29.687000274658203 22.142000198364258,39.88199996948242 29.895999908447266,48.20000076293945 C37.64400100708008,56.527000427246094 47.33399963378906,60.68600082397461 57.95899963378906,60.68600082397461 C68.58399963378906,60.68600082397461 79.5530014038086,56.95600128173828 82.69999694824219,48.74800109863281 C82.69999694824219,48.74800109863281 82.69999694824219,58.40599822998047 82.69999694824219,58.40599822998047 C82.69999694824219,58.40599822998047 107.61100006103516,58.40599822998047 107.61100006103516,58.40599822998047 C107.61100006103516,58.40599822998047 107.61100006103516,-23.174999237060547 107.61100006103516,-23.174999237060547z M-43.52399826049805,-23.611000061035156 C-43.52399826049805,-23.611000061035156 -43.52399826049805,58.41699981689453 -43.52399826049805,58.41699981689453 C-43.52399826049805,58.41699981689453 -17.042999267578125,58.41699981689453 -17.042999267578125,58.41699981689453 C-17.042999267578125,58.41699981689453 -17.042999267578125,30.198999404907227 -17.042999267578125,30.198999404907227 C-17.042999267578125,6.130000114440918 -10.880999565124512,0.2840000092983246 -0.8899999856948853,0.2840000092983246 C2.134999990463257,0.2840000092983246 5.742000102996826,0.25699999928474426 12.052000045776367,2.7190001010894775 C12.052000045776367,2.7190001010894775 19.260000228881836,-22.54400062561035 19.260000228881836,-22.54400062561035 C14.753999710083008,-25.280000686645508 10.248000144958496,-25.672000885009766 6.1020002365112305,-25.672000885009766 C-3.8940000534057617,-25.672000885009766 -14.381999969482422,-18.9689998626709 -18.375,-3.8380000591278076 C-18.375,-3.8380000591278076 -18.375,-23.611000061035156 -18.375,-23.611000061035156 C-18.375,-23.611000061035156 -43.52399826049805,-23.611000061035156 -43.52399826049805,-23.611000061035156z M-97.9729995727539,36.86399841308594 C-103.39900207519531,36.86399841308594 -107.94300079345703,35.07600021362305 -111.59300231933594,31.482999801635742 C-115.24299621582031,27.889999389648438 -117.0719985961914,23.266000747680664 -117.0719985961914,17.611000061035156 C-117.0719985961914,11.956999778747559 -115.24299621582031,7.322999954223633 -111.59300231933594,3.739000082015991 C-107.94300079345703,0.15399999916553497 -103.39900207519531,-1.6419999599456787 -97.9729995727539,-1.6419999599456787 C-92.552001953125,-1.6419999599456787 -88.00900268554688,0.14499999582767487 -84.36000061035156,3.739000082015991 C-80.70500183105469,7.331999778747559 -78.875,11.946999549865723 -78.875,17.611000061035156 C-78.875,23.274999618530273 -80.70500183105469,27.889999389648438 -84.36000061035156,31.482999801635742 C-88.01499938964844,35.06700134277344 -92.552001953125,36.86399841308594 -97.9729995727539,36.86399841308594z M-97.9729995727539,60.69599914550781 C-85.69200134277344,60.69599914550781 -75.28399658203125,56.52799987792969 -66.75800323486328,48.209999084472656 C-58.231998443603516,39.891998291015625 -53.970001220703125,29.695999145507812 -53.970001220703125,17.6200008392334 C-53.970001220703125,5.545000076293945 -58.231998443603516,-4.651000022888184 -66.75800323486328,-12.968999862670898 C-75.28399658203125,-21.28700065612793 -85.69200134277344,-25.445999145507812 -97.9729995727539,-25.445999145507812 C-110.25900268554688,-25.445999145507812 -120.66799926757812,-21.28700065612793 -129.19400024414062,-12.968999862670898 C-137.72000122070312,-4.651000022888184 -141.98300170898438,5.545000076293945 -141.98300170898438,17.6200008392334 C-141.98300170898438,29.695999145507812 -137.72000122070312,39.891998291015625 -129.19400024414062,48.209999084472656 C-120.66799926757812,56.5369987487793 -110.25900268554688,60.69599914550781 -97.9729995727539,60.69599914550781z M-161.38699340820312,-16.232999801635742 C-167.14599609375,-22.3799991607666 -174.78900146484375,-25.45400047302246 -184.30599975585938,-25.45400047302246 C-195.26499938964844,-25.45400047302246 -203.2949981689453,-21.861000061035156 -208.38699340820312,-14.682999610900879 C-213.26199340820312,-21.861000061035156 -220.50900268554688,-25.45400047302246 -230.14300537109375,-25.45400047302246 C-240.43499755859375,-25.45400047302246 -247.8520050048828,-22.197999954223633 -252.39500427246094,-15.668000221252441 C-252.39500427246094,-15.668000221252441 -252.39500427246094,-23.173999786376953 -252.39500427246094,-23.173999786376953 C-252.39500427246094,-23.173999786376953 -277.30499267578125,-23.173999786376953 -277.30499267578125,-23.173999786376953 C-277.30499267578125,-23.173999786376953 -277.30499267578125,58.40800094604492 -277.30499267578125,58.40800094604492 C-277.30499267578125,58.40800094604492 -252.39500427246094,58.40800094604492 -252.39500427246094,58.40800094604492 C-252.39500427246094,58.40800094604492 -252.39500427246094,12.395000457763672 -252.39500427246094,12.395000457763672 C-252.39500427246094,7.616000175476074 -251.25900268554688,3.8589999675750732 -248.98800659179688,1.1410000324249268 C-246.72500610351562,-1.5770000219345093 -243.54400634765625,-2.936000108718872 -239.44400024414062,-2.936000108718872 C-235.5679931640625,-2.936000108718872 -232.60400390625,-1.7309999465942383 -230.55799865722656,0.6579999923706055 C-228.51199340820312,3.046999931335449 -227.48399353027344,6.313000202178955 -227.48399353027344,10.444000244140625 C-227.48399353027344,10.444000244140625 -227.48399353027344,58.40800094604492 -227.48399353027344,58.40800094604492 C-227.48399353027344,58.40800094604492 -202.57400512695312,58.40800094604492 -202.57400512695312,58.40800094604492 C-202.57400512695312,58.40800094604492 -202.57400512695312,12.395000457763672 -202.57400512695312,12.395000457763672 C-202.57400512695312,7.616000175476074 -201.43800354003906,3.8589999675750732 -199.16700744628906,1.1410000324249268 C-196.90499877929688,-1.5770000219345093 -193.72300720214844,-2.936000108718872 -189.6230010986328,-2.936000108718872 C-185.7469940185547,-2.936000108718872 -182.7830047607422,-1.7309999465942383 -180.73699951171875,0.6579999923706055 C-178.6909942626953,3.046999931335449 -177.66400146484375,6.313000202178955 -177.66400146484375,10.444000244140625 C-177.66400146484375,10.444000244140625 -177.66400146484375,58.40800094604492 -177.66400146484375,58.40800094604492 C-177.66400146484375,58.40800094604492 -152.7530059814453,58.40800094604492 -152.7530059814453,58.40800094604492 C-152.7530059814453,58.40800094604492 -152.7530059814453,8.319000244140625 -152.7530059814453,8.319000244140625 C-152.7530059814453,-1.9049999713897705 -155.6280059814453,-10.086000442504883 -161.38699340820312,-16.232999801635742z"></path></g></g></mask><mask id="__lottie_element_13" mask-type="alpha"><g transform="matrix(1,0,0,1,130.5,103.5)" opacity="1" style="display: block;"><g opacity="1" transform="matrix(1,0,0,1,0,0)"><path stroke-linecap="round" stroke-linejoin="miter" fill-opacity="0" stroke-miterlimit="4" stroke="rgb(9,9,9)" stroke-opacity="1" stroke-width="82" d=" M-57.255001068115234,64 C-71.17500305175781,45.49599838256836 -113.24800109863281,-14.809000015258789 -91.5,-41 C-45,-97 -0.5,-29 -0.5,-30 C-0.5,-31 69,-106 95,-42.5 C121.87000274658203,23.124000549316406 45,86 45,86 M-53,69.5 C-53,69.5 -54.625,67.49600219726562 -57.255001068115234,64"></path></g></g></mask><radialGradient id="__lottie_element_19" spreadMethod="pad" gradientUnits="userSpaceOnUse" cx="48.28099822998047" cy="78.70800018310547" r="242.28900909423828" fx="48.28099822998047" fy="78.70800018310547"><stop offset="0%" stop-color="rgb(51,255,204)"></stop><stop offset="50%" stop-color="rgb(33,191,229)"></stop><stop offset="100%" stop-color="rgb(15,127,255)"></stop></radialGradient></defs><g clip-path="url(#__lottie_element_2)"><g mask="url(#__lottie_element_13)" style="display: block;"><g transform="matrix(1,0,0,1,130.5,103.3499984741211)" opacity="1"><g opacity="1" transform="matrix(1,0,0,1,0,0)"><path fill="url(#__lottie_element_19)" fill-opacity="1" d=" M58.30400085449219,-102.177001953125 C84.42500305175781,-100.20800018310547 107.5999984741211,-83.5469970703125 118.96099853515625,-59.481998443603516 C118.96099853515625,-59.481998443603516 118.9520034790039,-59.481998443603516 118.9520034790039,-59.481998443603516 C126.11499786376953,-44.56700134277344 129.01699829101562,-28.191999435424805 127.68599700927734,-11.807000160217285 C124.45500183105469,23.243000030517578 103.68599700927734,61.27899932861328 80.83100128173828,86.90299987792969 C78.56700134277344,89.37100219726562 76.26899719238281,91.8219985961914 73.88999938964844,94.18299865722656 C61.77399826049805,107.10199737548828 40.685001373291016,106.39800262451172 30.097000122070312,91.875 C20.226999282836914,78.66200256347656 23.422000885009766,60.22800064086914 35.90999984741211,50.4900016784668 C38.6349983215332,48.30699920654297 41.64400100708008,45.722999572753906 44.279998779296875,43.380001068115234 C54.930999755859375,33.87300109863281 64.53500366210938,22.8700008392334 70.53500366210938,9.718999862670898 C79.072998046875,-9.053000450134277 81.1500015258789,-37.547000885009766 61.233001708984375,-48.38999938964844 C57.68299865722656,-50.323001861572266 52.75699996948242,-51.516998291015625 48.38999938964844,-51.76599884033203 C40.5880012512207,-52.53200149536133 33.46099853515625,-49.08399963378906 27.868999481201172,-43.37300109863281 C24.159000396728516,-39.58599853515625 21.06999969482422,-34.624000549316406 19.21500015258789,-29.482999801635742 C18.6200008392334,-27.88800048828125 18.159000396728516,-26.17799949645996 17.759000778198242,-24.466999053955078 C17.732999801635742,-24.35099983215332 17.71500015258789,-24.2450008392334 17.687999725341797,-24.13800048828125 C17.66200065612793,-24.0310001373291 17.635000228881836,-23.933000564575195 17.607999801635742,-23.826000213623047 C17.457000732421875,-23.158000946044922 17.315000534057617,-22.49799919128418 17.17300033569336,-21.847999572753906 C12.513999938964844,-2.684000015258789 -12.427000045776367,-3.109999895095825 -17.868000030517578,-19.958999633789062 C-18.099000930786133,-20.448999404907227 -18.320999145507812,-20.947999954223633 -18.524999618530273,-21.46500015258789 C-21.259000778198242,-28.611000061035156 -23.708999633789062,-36.35200119018555 -29.06100082397461,-41.8849983215332 C-37.29800033569336,-50.79499816894531 -48.60499954223633,-53.01300048828125 -59.44200134277344,-48.88800048828125 C-66.40899658203125,-46.14400100708008 -71.71800231933594,-40.30799865722656 -74.99299621582031,-33.51900100708008 C-78.45500183105469,-26.239999771118164 -79.5459976196289,-19.031999588012695 -79.04000091552734,-10.666000366210938 C-78.18800354003906,2.49399995803833 -73.88300323486328,15.857999801635742 -68.11399841308594,27.72599983215332 C-66.03700256347656,31.886999130249023 -63.74700164794922,35.94900131225586 -61.20000076293945,39.816001892089844 C-58.457000732421875,43.986000061035156 -55.448001861572266,47.88800048828125 -52.18199920654297,51.558998107910156 C-41.93899917602539,63.694000244140625 -55.06700134277344,81.05000305175781 -69.072998046875,74.20700073242188 C-89.14099884033203,63.71200180053711 -104.56700134277344,45.847999572753906 -115.13800048828125,25.756999969482422 C-125.72699737548828,5.388999938964844 -131.06199645996094,-18.79199981689453 -126.1709976196289,-41.948001861572266 C-118.12100219726562,-80.60700225830078 -85.08499908447266,-105.51799774169922 -46.75899887084961,-103.2020034790039 C-28.527999877929688,-102.28399658203125 -11.63700008392334,-93.3740005493164 0.3179999887943268,-79.76899719238281 C6.113999843597412,-86.14800262451172 13.01099967956543,-91.50299835205078 20.759000778198242,-95.36100006103516 C32.29800033569336,-101.1969985961914 45.505001068115234,-103.37100219726562 58.30400085449219,-102.177001953125z"></path></g></g></g><g clip-path="url(#__lottie_element_4)" transform="matrix(1,0,0,1,323.5,27)" opacity="1" style="display: block;"><g mask="url(#__lottie_element_7)" style="display: block;"><g transform="matrix(1.0037399530410767,0,0,1,277.5,60.5)" opacity="0.999998462340335"><g opacity="1" transform="matrix(1,0,0,1,0,0)"><path stroke-linecap="round" stroke-linejoin="round" fill-opacity="0" stroke="rgb(255,255,255)" stroke-opacity="1" stroke-width="32" d=" M-266,59.5 C-266,59.5 -267.5,-23.5 -267.5,-23.5 C-267.5,-23.5 -264,-5 -264,-5 C-264,-5 -230.97999572753906,-17.579999923706055 -221.24000549316406,-7.289999961853027 C-211.5,3 -215.75100708007812,39.013999938964844 -217,56.5 C-218.9029998779297,30.57699966430664 -205.85400390625,4.670000076293945 -198.177001953125,-4.164999961853027 C-190.5,-13 -168.0240020751953,-14.04699993133545 -167.5,8.5 C-167.1580047607422,23.211999893188477 -171.99000549316406,46.486000061035156 -163.4949951171875,51.49300003051758 C-155,56.5 -126.15799713134766,42.84199905395508 -125.5,43.5 C-124.5,44.5 -80,63 -70,35 C-60,7 -76.5,-24.5 -107,-15 C-139.0240020751953,-5.025000095367432 -134.5,15 -125.5,38 C-116.5,61 -30.5,48.5 -30.5,48.5 C-30.5,48.5 -35,-21.5 -35,-21.5 C-35,-21.5 -23.5,6.5 -23.5,6.5 C-23.5,6.5 -12.104000091552734,-1.8619999885559082 -7.552000045776367,-3.430999994277954 C-3,-5 0.3330000042915344,-12.536999702453613 4.5,-13 C13.5,-14 77.5,-12 77.5,-12 C77.5,-12 18.5,-3.5 34.5,30 C50.79199981689453,64.11100006103516 84.5,43.5 84.5,43.5 C84.5,43.5 92.5,-22.5 92.5,-22.5 C92.5,-22.5 106,54.5 106,54.5 C106,54.5 138.5,50 138.5,50 C138.5,50 140,-59 140,-59 C140,-59 182,57.5 182,57.5 C182,57.5 179.5,-18.5 179.5,-18.5 C179.5,-18.5 182,-55.5 182,-55.5 C182,-55.5 195.17599487304688,17.695999145507812 196.83799743652344,21.347999572753906 C198.5,25 218.5,39.5 218.5,39.5 C218.5,39.5 255.5,63 261.5,45 C267.5,27 267.8810119628906,22.235000610351562 243,18 C237.36399841308594,17.041000366210938 225.63600158691406,15.814000129699707 223.3179931640625,13.406999588012695 C221,11 203.36000061035156,1.5230000019073486 202.42300415039062,-1.0069999694824219 C201.5,-3.5 216.37600708007812,-24.746000289916992 224.18800354003906,-25.87299919128418 C232,-27 234.0500030517578,-15 237,-15 C251,-15 273.5,-1.5 273.5,-1.5"></path></g></g></g></g></g></svg>