<svg xmlns="http://www.w3.org/2000/svg" width="68" height="64" viewBox="0 0 68 64" fill="none"><path d="M50.8888 20.6209C49.6705 19.9286 48.104 19.9286 46.7116 20.6209L36.9647 26.3327L30.3507 29.9674L20.7779 35.6792C19.5595 36.3715 17.993 36.3715 16.6006 35.6792L9.1164 31.179C7.89804 30.4867 7.02778 29.102 7.02778 27.5443V18.8901C7.02778 17.5054 7.72399 16.1208 9.1164 15.2553L16.6006 10.9283C17.819 10.2359 19.3855 10.2359 20.7779 10.9283L28.2621 15.4284C29.4805 16.1207 30.3507 17.5054 30.3507 19.0632V24.7749L36.9647 20.9671V15.0823C36.9647 13.6976 36.2685 12.3129 34.8761 11.4475L20.9519 3.31258C19.7336 2.62025 18.1671 2.62025 16.7747 3.31258L2.50244 11.6206C1.11003 12.3129 0.413818 13.6976 0.413818 15.0823V31.3521C0.413818 32.7367 1.11003 34.1214 2.50244 34.9868L16.6006 43.1217C17.819 43.8141 19.3855 43.8141 20.7779 43.1217L30.3507 37.5831L36.9647 33.7752L46.5375 28.2366C47.7559 27.5443 49.3223 27.5443 50.7148 28.2366L58.199 32.5637C59.4174 33.256 60.2876 34.6407 60.2876 36.1984V44.8526C60.2876 46.2373 59.5914 47.6219 58.199 48.4873L50.8888 52.8144C49.6705 53.5067 48.104 53.5067 46.7116 52.8144L39.2273 48.4873C38.009 47.795 37.1387 46.4103 37.1387 44.8526V39.3139L30.5248 43.1217V48.8335C30.5248 50.2182 31.221 51.6028 32.6134 52.4682L46.7116 60.6032C47.9299 61.2955 49.4964 61.2955 50.8888 60.6032L64.987 52.4682C66.2054 51.7759 67.0756 50.3912 67.0756 48.8335V32.3906C67.0756 31.0059 66.3794 29.6212 64.987 28.7558L50.8888 20.6209Z" fill="#BC68FF"></path></svg>