<svg xmlns="http://www.w3.org/2000/svg" width="1060" height="98" viewBox="0 0 1060 98" fill="none"><g clip-path="url(#clip0_278_4712)"><path d="M695.926 26.1093L713.405 16L730.884 26.1093L724.458 29.8439L713.405 23.4693L702.352 29.8439L695.926 26.1093ZM730.884 38.8586L724.458 35.1239L713.405 41.4986L702.352 35.1239L695.926 38.8586V46.3279L706.979 52.7025V65.4517L713.405 69.1865L719.831 65.4517V52.7025L730.884 46.3279V38.8586ZM730.884 59.0773V51.6079L724.458 55.3426V62.8117L730.884 59.0773ZM735.446 61.7174L724.394 68.0918V75.5612L741.873 65.4517V45.2332L735.446 48.9679V61.7174ZM729.021 32.4839L735.446 36.2186V43.6879L741.873 39.9532V32.4839L735.446 28.7493L729.021 32.4839ZM706.979 70.7962V78.2656L713.405 82L719.831 78.2656V70.7962L713.405 74.5309L706.979 70.7962ZM695.926 59.0773L702.352 62.8117V55.3426L695.926 51.6079V59.0773ZM706.979 32.4839L713.405 36.2186L719.831 32.4839L713.405 28.7493L706.979 32.4839ZM691.364 36.2186L697.79 32.4839L691.364 28.7493L684.938 32.4839V39.9532L691.364 43.6879V36.2186ZM691.364 48.9679L684.938 45.2332V65.4517L702.416 75.5612V68.0918L691.364 61.7174V48.9679Z" fill="#F0B90B"></path><path d="M792.534 57.4194V57.3142C792.534 52.3818 789.916 49.9156 785.674 48.2889C788.292 46.8197 790.492 44.5109 790.492 40.3655V40.2605C790.492 34.4886 785.883 30.763 778.395 30.763H761.376V67.4941H778.814C787.088 67.4941 792.534 64.1358 792.534 57.4194ZM782.48 41.7298C782.48 44.4584 780.228 45.6128 776.667 45.6128H769.231V37.8468H777.19C780.594 37.8468 782.48 39.2111 782.48 41.6249V41.7298ZM784.522 56.4223C784.522 59.1507 782.375 60.4101 778.814 60.4101H769.231V52.3293H778.552C782.689 52.3293 784.522 53.8512 784.522 56.3172V56.4223Z" fill="#F0B90B"></path><path d="M832.264 67.4941V30.763H824.304V53.3788L807.128 30.763H799.692V67.4941H807.651V44.1436L825.404 67.4941H832.264Z" fill="#F0B90B"></path><path d="M872.746 57.4194V57.3142C872.746 52.3818 870.127 49.9156 865.886 48.2889C868.504 46.8197 870.704 44.5109 870.704 40.3655V40.2605C870.704 34.4886 866.095 30.763 858.607 30.763H841.587V67.4941H859.026C867.3 67.4941 872.746 64.1358 872.746 57.4194ZM862.691 41.7298C862.691 44.4584 860.439 45.6128 856.879 45.6128H849.443V37.8468H857.402C860.806 37.8468 862.691 39.2111 862.691 41.6249V41.7298ZM864.734 56.4223C864.734 59.1507 862.587 60.4101 859.026 60.4101H849.443V52.3293H858.764C862.901 52.3293 864.734 53.8512 864.734 56.3172V56.4223Z" fill="#F0B90B"></path><path d="M921.35 61.0051L917.212 56.8074C914.07 59.7458 911.19 61.5826 906.686 61.5826C899.669 61.5826 894.59 55.7056 894.59 48.4643C894.59 41.223 899.669 35.451 906.686 35.451C910.876 35.451 914.018 37.2876 916.95 40.0162L921.088 35.2411C917.579 31.8828 913.494 29.5216 906.739 29.5216C895.637 29.5216 887.835 38.0746 887.835 48.5692C887.835 59.1686 895.794 67.512 906.477 67.512C913.337 67.512 917.527 64.9933 921.35 61.0051Z" fill="#F0B90B"></path><path d="M952.575 51.4028V66.8821H959.016V30.1513H952.575V45.4208H935.084V30.1513H928.643V66.8821H935.084V51.4028H952.575Z" fill="#F0B90B"></path><path d="M987.911 29.8889H981.94L965.812 66.8821H972.41L976.18 58.0144H993.514L997.232 66.8821H1004.04L987.911 29.8889ZM991.157 52.2948H978.537L984.821 37.6024L991.157 52.2948Z" fill="#F0B90B"></path><path d="M1011.22 30.1513V66.8821H1017.66V30.1513H1011.22Z" fill="#F0B90B"></path><path d="M1053.6 55.5481L1033.96 30.1513H1027.99V66.8821H1034.33V40.7508L1054.54 66.8821H1059.94V30.1513H1053.6V55.5481Z" fill="#F0B90B"></path></g><line x1="520.826" y1="13" x2="520.826" y2="85" stroke="#0F7FFF" stroke-width="3.65209"></line><line x1="555.345" y1="50.826" x2="483.345" y2="50.826" stroke="#0F7FFF" stroke-width="3.65209"></line><g clip-path="url(#clip1_278_4712)"><path d="M57.8483 35.7738C56.4478 34.9112 54.6268 34.9112 53.0862 35.7738L42.161 42.3868L34.7375 46.6997L23.8124 53.3129C22.4118 54.1754 20.5909 54.1754 19.0502 53.3129L10.3661 48.1375C8.96548 47.2749 7.985 45.6935 7.985 43.9682V33.7611C7.985 32.0359 8.82539 30.4546 10.3661 29.592L18.9101 24.5602C20.3108 23.6977 22.1316 23.6977 23.6724 24.5602L32.2164 29.592C33.617 30.4546 34.5974 32.0359 34.5974 33.7611V40.3742L42.0209 35.9175V29.3044C42.0209 27.5793 41.1807 25.9979 39.6399 25.1353L23.8124 15.6469C22.4118 14.7844 20.5909 14.7844 19.0502 15.6469L2.94265 25.1353C1.40192 25.9979 0.561523 27.5793 0.561523 29.3044V48.425C0.561523 50.1501 1.40192 51.7315 2.94265 52.594L19.0502 62.0824C20.4509 62.9451 22.2718 62.9451 23.8124 62.0824L34.7375 55.613L42.161 51.1565L53.0862 44.6871C54.4868 43.8246 56.3077 43.8246 57.8483 44.6871L66.3923 49.7189C67.7931 50.5814 68.7736 52.1629 68.7736 53.8879V64.0952C68.7736 65.8202 67.9332 67.4017 66.3923 68.2642L57.8483 73.4398C56.4478 74.3024 54.6268 74.3024 53.0862 73.4398L44.5422 68.4081C43.1414 67.5455 42.161 65.9641 42.161 64.2388V57.6258L34.7375 62.0824V68.6956C34.7375 70.4206 35.5779 72.0021 37.1188 72.8646L53.2263 82.3532C54.6268 83.2157 56.4478 83.2157 57.9884 82.3532L74.0961 72.8646C75.4967 72.0021 76.4771 70.4206 76.4771 68.6956V49.575C76.4771 47.85 75.6367 46.2685 74.0961 45.406L57.8483 35.7738Z" fill="#BC68FF"></path><path d="M106.051 76.8853V61.0116C107.759 63.1791 110.859 64.3903 114.465 64.3903C123.638 64.3903 129.838 57.8241 129.838 47.8153C129.838 37.8066 124.144 31.2403 115.224 31.2403C111.112 31.2403 107.949 32.7703 106.051 35.2566V31.7503H97.2573V76.8853H106.051ZM113.389 56.7403C108.645 56.7403 105.545 53.1703 105.545 47.8153C105.545 42.3966 108.645 38.8266 113.389 38.8266C118.007 38.8266 121.171 42.3966 121.171 47.8153C121.171 53.1703 118.007 56.7403 113.389 56.7403Z" fill="#E3E5E8"></path><path d="M149.806 64.3903C159.611 64.3903 166.634 57.3778 166.634 47.8153C166.634 38.2528 159.611 31.2403 149.806 31.2403C140 31.2403 132.978 38.2528 132.978 47.8153C132.978 57.3778 140 64.3903 149.806 64.3903ZM149.806 56.7403C145.061 56.7403 141.835 53.1066 141.835 47.8153C141.835 42.4603 145.061 38.8266 149.806 38.8266C154.551 38.8266 157.777 42.4603 157.777 47.8153C157.777 53.1066 154.551 56.7403 149.806 56.7403Z" fill="#E3E5E8"></path><path d="M180.743 63.8803V17.7891H171.95V63.8803H180.743Z" fill="#E3E5E8"></path><path d="M207.177 31.7503L200.534 52.4691L193.828 31.7503H184.845L196.422 63.6253L191.741 76.8853H200.155L204.646 63.7528L216.224 31.7503H207.177Z" fill="#E3E5E8"></path><path d="M240.92 34.9378C239.148 32.7066 235.986 31.2403 232.127 31.2403C222.826 31.2403 217.197 37.8066 217.197 47.8153C217.197 57.8241 222.826 64.3903 232.252 64.3903C235.986 64.3903 239.337 62.9878 240.984 60.6291V64.8366C240.984 67.8328 239.023 69.9366 236.364 69.9366H221.687V76.8853H237.756C244.968 76.8853 249.777 72.4866 249.777 65.7928V31.7503H240.92V34.9378ZM233.644 56.7403C228.963 56.7403 225.863 53.2341 225.863 47.8153C225.863 42.3966 228.963 38.8266 233.644 38.8266C238.389 38.8266 241.49 42.3966 241.49 47.8153C241.49 53.2341 238.389 56.7403 233.644 56.7403Z" fill="#E3E5E8"></path><path d="M271.945 64.3903C281.752 64.3903 288.773 57.3778 288.773 47.8153C288.773 38.2528 281.752 31.2403 271.945 31.2403C262.141 31.2403 255.117 38.2528 255.117 47.8153C255.117 57.3778 262.141 64.3903 271.945 64.3903ZM271.945 56.7403C267.2 56.7403 263.974 53.1066 263.974 47.8153C263.974 42.4603 267.2 38.8266 271.945 38.8266C276.69 38.8266 279.916 42.4603 279.916 47.8153C279.916 53.1066 276.69 56.7403 271.945 56.7403Z" fill="#E3E5E8"></path><path d="M302.441 63.8803V46.2853C302.441 42.1416 305.161 39.1453 309.02 39.1453C312.688 39.1453 315.155 41.9503 315.155 45.8391V63.8803H324.012V43.8628C324.012 36.4678 319.331 31.2403 312.118 31.2403C307.754 31.2403 304.211 33.0891 302.441 36.2128V31.7503H293.584V63.8803H302.441Z" fill="#E3E5E8"></path></g><defs><clipPath id="clip0_278_4712"><rect width="375" height="86.4706" fill="white" transform="translate(684.792 5.76471)"></rect></clipPath><clipPath id="clip1_278_4712"><rect width="353" height="68" fill="white" transform="translate(0.208008 15)"></rect></clipPath></defs></svg>